<svg xmlns="http://www.w3.org/2000/svg" width="109.32" height="59.598" viewBox="0 0 109.32 59.598"><g transform="translate(-369.439 -316.436)"><path d="M369.439,353.4h2.7l5.75,9.757,5.733-9.757h2.544l-7.3,12.127a1.683,1.683,0,0,1-.453.523,1,1,0,0,1-.61.191,1.028,1.028,0,0,1-.627-.191,1.671,1.671,0,0,1-.453-.523Z" fill="#174798"/><path d="M387.525,366.063V353.4h11.308v2.212h-9.112v8.243h9.13v2.212Zm3.816-5.5v-1.865h7.023v1.865Z" fill="#174798"/><path d="M400.75,366.063V353.4h2.213v10.455h8.521v2.212Z" fill="#174798"/><path d="M418.854,366.063a5.989,5.989,0,0,1-2.448-.5,6.085,6.085,0,0,1-1.952-1.358,6.173,6.173,0,0,1-1.29-2.048,7.006,7.006,0,0,1-.46-2.561,6.784,6.784,0,0,1,.46-2.544,5.673,5.673,0,0,1,1.29-1.96,5.831,5.831,0,0,1,1.952-1.255,6.6,6.6,0,0,1,2.448-.444h3.084a6.768,6.768,0,0,1,2.518.453,5.609,5.609,0,0,1,3.233,3.232,6.792,6.792,0,0,1,.453,2.518,6.966,6.966,0,0,1-.463,2.561,6.039,6.039,0,0,1-5.741,3.9Zm3.084-2.212a4.028,4.028,0,0,0,1.6-.314,3.783,3.783,0,0,0,2.091-2.179,4.555,4.555,0,0,0,.3-1.655,4.5,4.5,0,0,0-.3-1.646,3.727,3.727,0,0,0-2.091-2.143,4.132,4.132,0,0,0-1.6-.306h-3.084a4.024,4.024,0,0,0-1.577.306,3.692,3.692,0,0,0-1.245.845,3.888,3.888,0,0,0-.82,1.289,4.479,4.479,0,0,0-.3,1.655,4.556,4.556,0,0,0,.3,1.655,3.944,3.944,0,0,0,.82,1.317,3.764,3.764,0,0,0,1.245.862,3.922,3.922,0,0,0,1.577.314Z" fill="#174798"/><path d="M435.721,366.063a5.989,5.989,0,0,1-2.448-.5,6.028,6.028,0,0,1-3.241-3.406,6.986,6.986,0,0,1-.462-2.561,6.765,6.765,0,0,1,.462-2.544,5.617,5.617,0,0,1,1.29-1.96,5.806,5.806,0,0,1,1.951-1.255,6.6,6.6,0,0,1,2.448-.444h6.865v2.212h-6.865a4.024,4.024,0,0,0-1.577.306,3.706,3.706,0,0,0-1.246.845,3.9,3.9,0,0,0-.819,1.289,4.459,4.459,0,0,0-.3,1.655,4.534,4.534,0,0,0,.3,1.655,3.957,3.957,0,0,0,.819,1.317,3.778,3.778,0,0,0,1.246.862,3.922,3.922,0,0,0,1.577.314h6.865v2.212Z" fill="#174798"/><path d="M444.5,366.063V353.4h2.213v12.667Z" fill="#174798"/><path d="M453.092,366.063V355.608h-4.808V353.4h11.831v2.212H455.3v10.455Z" fill="#174798"/><path d="M472.4,366.063l-1.9-3.188h-5.994l1.046-1.8h3.886l-2.823-4.739-5.75,9.722h-2.527l7.283-12.127a1.7,1.7,0,0,1,.454-.523,1.026,1.026,0,0,1,.627-.191.994.994,0,0,1,.619.191,1.756,1.756,0,0,1,.444.523l7.3,12.127Z" fill="#f7941d"/><path d="M476.546,366.063V353.4h2.213v12.667Z" fill="#f7941d"/><path d="M402.073,375.9v-5.169h.8a7.652,7.652,0,0,1,1.53.106,1.934,1.934,0,0,1,.776.363,2.181,2.181,0,0,1,.657.883,3.5,3.5,0,0,1,0,2.474,2.026,2.026,0,0,1-1.416,1.234,6.239,6.239,0,0,1-1.387.109h-.964Zm.469-.406h.661a4.94,4.94,0,0,0,1.136-.09,1.328,1.328,0,0,0,.569-.3,1.926,1.926,0,0,0,.491-.756,3.309,3.309,0,0,0,0-2.076,1.806,1.806,0,0,0-.5-.742,1.424,1.424,0,0,0-.6-.314,5.741,5.741,0,0,0-1.247-.092h-.508Z" fill="#646466"/><path d="M410.438,375.9v-5.169h.47V375.9Z" fill="#646466"/><path d="M419.76,372.026a2.051,2.051,0,0,0-1.807-.988,2.035,2.035,0,0,0-1.565.65,2.586,2.586,0,0,0-.443,2.556,2.184,2.184,0,0,0,.468.728,2.065,2.065,0,0,0,.7.47,2.19,2.19,0,0,0,.844.158,1.98,1.98,0,0,0,1.414-.512,1.793,1.793,0,0,0,.559-1.338h-1.783v-.406h2.3v.056a2.673,2.673,0,0,1-.674,1.935,2.461,2.461,0,0,1-1.857.7,2.531,2.531,0,0,1-1.9-.749,2.7,2.7,0,0,1-.727-1.963,2.989,2.989,0,0,1,.183-1.053,2.5,2.5,0,0,1,.53-.864,2.448,2.448,0,0,1,.845-.6,2.693,2.693,0,0,1,1.051-.2,2.952,2.952,0,0,1,1.349.285,1.986,1.986,0,0,1,.865.834Z" fill="#646466"/><path d="M424.757,375.9v-5.169h.47V375.9Z" fill="#646466"/><path d="M430.76,375.9v-4.728h-1.423v-.441h3.32v.441H431.23V375.9Z" fill="#646466"/><path d="M435.532,375.9l2.27-5.374,2.175,5.374h-.512l-.66-1.75h-2.111l-.686,1.75Zm1.32-2.154h1.8l-.883-2.249Z" fill="#646466"/><path d="M443.883,375.9v-5.169h.47v4.728h1.772v.441Z" fill="#646466"/><path d="M421.129,323l-1.277,2.823-2.97,6.564-7.218,15.951H415.6l4.248-9.386,2.97-6.564,1.277-2.822h0V316.436Z" fill="#f7941d"/><path d="M431.317,332.386l-2.97-6.564L427.069,323l-2.97-6.564h0v13.128h0l1.277,2.823,2.97,6.564,4.247,9.386h5.941Z" fill="#feb811"/><path d="M422.822,332.386l-2.97-6.564-4.248-9.386h-5.941l7.218,15.95,2.97,6.564,1.277,2.823,2.97,6.564V335.209h0Z" fill="#174798"/><path d="M432.594,316.436l-4.247,9.386-2.97,6.564-1.277,2.823h0v13.128h0l2.97-6.564,1.277-2.823,2.97-6.564,7.218-15.95Z" fill="#153880"/></g></svg>